{
  "asset": {
    "version": "2.0",
    "generator": "Sketchup glTF Exporter v1.2.6 by Centaur"
  },
  "scene": 0,
  "scenes": [
    {
      "nodes": [
        0
      ]
    }
  ],
  "samplers": [
    {
    }
  ],
  "nodes": [
    {
      "name": "root",
      "children": [
        1
      ]
    },
    {
      "mesh": 0
    }
  ],
  "materials": [
    {
      "pbrMetallicRoughness": {
        "baseColorFactor": [
          0.0111,
          0.9914,
          0.0003,
          1.0
        ],
        "metallicFactor": 0.1,
        "roughnessFactor": 0.9
      },
      "name": "Material2"
    },
    {
      "pbrMetallicRoughness": {
        "baseColorTexture": {
          "index": 0
        },
        "metallicFactor": 0.1,
        "roughnessFactor": 0.9
      },
      "name": "Bundesländer_GRUEN1"
    }
  ],
  "images": [
    {
      "bufferView": 0,
      "mimeType": "image/png"
    }
  ],
  "textures": [
    {
      "source": 0,
      "sampler": 0
    }
  ],
  "meshes": [
    {
      "primitives": [
        {
          "attributes": {
            "POSITION": 0,
            "NORMAL": 1
          },
          "indices": 5,
          "mode": 4,
          "material": 0
        },
        {
          "attributes": {
            "POSITION": 2,
            "NORMAL": 3,
            "TEXCOORD_0": 4
          },
          "indices": 6,
          "mode": 4,
          "material": 1
        }
      ]
    }
  ],
  "accessors": [
    {
      "bufferView": 1,
      "componentType": 5126,
      "count": 5484,
      "type": "VEC3",
      "min": [
        -0.5894595826392014,
        -0.0007591755024055484,
        8.303828142561336e-19
      ],
      "max": [
        0.6296627658720011,
        1.6558976410704018,
        0.056423931200161606
      ]
    },
    {
      "bufferView": 2,
      "componentType": 5126,
      "count": 5484,
      "type": "VEC3",
      "min": [
        -1.0,
        -0.999999591525424,
        -1.0
      ],
      "max": [
        0.999997981883876,
        1.0,
        9.781446092257154e-14
      ]
    },
    {
      "bufferView": 3,
      "componentType": 5126,
      "count": 1096,
      "type": "VEC3",
      "min": [
        -0.5894595826392014,
        -0.0007591755024055484,
        0.05642393119999963
      ],
      "max": [
        0.6296627658720011,
        1.6558976410703967,
        0.056423931200161606
      ]
    },
    {
      "bufferView": 4,
      "componentType": 5126,
      "count": 1096,
      "type": "VEC3",
      "min": [
        -2.8874568298658765e-16,
        -9.785313064563315e-14,
        1.0
      ],
      "max": [
        -2.8874568298658765e-16,
        -9.785313064563315e-14,
        1.0
      ]
    },
    {
      "bufferView": 5,
      "componentType": 5126,
      "count": 1096,
      "type": "VEC2",
      "min": [
        0.0019370076511270153,
        -0.0008760167851604717
      ],
      "max": [
        0.9956209282896947,
        0.9996476215951929
      ]
    },
    {
      "bufferView": 6,
      "componentType": 5123,
      "count": 9867,
      "type": "SCALAR"
    },
    {
      "bufferView": 7,
      "componentType": 5123,
      "count": 3285,
      "type": "SCALAR"
    }
  ],
  "bufferViews": [
    {
      "buffer": 0,
      "byteLength": 532008
    },
    {
      "buffer": 0,
      "byteOffset": 532008,
      "byteLength": 65808,
      "target": 34962,
      "byteStride": 12
    },
    {
      "buffer": 0,
      "byteOffset": 597816,
      "byteLength": 65808,
      "target": 34962,
      "byteStride": 12
    },
    {
      "buffer": 0,
      "byteOffset": 663624,
      "byteLength": 13152,
      "target": 34962,
      "byteStride": 12
    },
    {
      "buffer": 0,
      "byteOffset": 676776,
      "byteLength": 13152,
      "target": 34962,
      "byteStride": 12
    },
    {
      "buffer": 0,
      "byteOffset": 689928,
      "byteLength": 8768,
      "target": 34962,
      "byteStride": 8
    },
    {
      "buffer": 0,
      "byteOffset": 698696,
      "byteLength": 19734,
      "target": 34963
    },
    {
      "buffer": 0,
      "byteOffset": 718430,
      "byteLength": 6570,
      "target": 34963
    }
  ],
  "buffers": [
    {
      "uri": "data:application/octet-stream;base64,",
      "byteLength": 725000
    }
  ]
}