{
  "asset": {
    "version": "2.0",
    "generator": "Sketchup glTF Exporter v1.2.6 by Centaur"
  },
  "scene": 0,
  "scenes": [
    {
      "nodes": [
        0
      ]
    }
  ],
  "samplers": [
    {
    }
  ],
  "nodes": [
    {
      "name": "root",
      "children": [
        1
      ]
    },
    {
      "children": [
        2,
        5
      ]
    },
    {
      "children": [
        3,
        4
      ]
    },
    {
      "name": "Component#10",
      "mesh": 0
    },
    {
      "mesh": 1
    },
    {
      "mesh": 2
    }
  ],
  "materials": [
    {
      "pbrMetallicRoughness": {
        "baseColorFactor": [
          0.4098,
          0.4098,
          0.4098,
          1.0
        ],
        "metallicFactor": 0.1,
        "roughnessFactor": 0.9
      },
      "name": "Color_003"
    },
    {
      "pbrMetallicRoughness": {
        "baseColorFactor": [
          0.2176,
          0.2176,
          0.2176,
          1.0
        ],
        "metallicFactor": 0.1,
        "roughnessFactor": 0.9
      },
      "name": "default material",
      "doubleSided": true
    },
    {
      "pbrMetallicRoughness": {
        "baseColorFactor": [
          0.5732,
          0.5732,
          0.5732,
          1.0
        ],
        "metallicFactor": 0.1,
        "roughnessFactor": 0.9
      },
      "name": "Color_002",
      "doubleSided": true
    },
    {
      "pbrMetallicRoughness": {
        "baseColorFactor": [
          0.009,
          0.009,
          0.009,
          1.0
        ],
        "metallicFactor": 0.1,
        "roughnessFactor": 0.9
      },
      "name": "[Color_008]1",
      "doubleSided": true
    },
    {
      "pbrMetallicRoughness": {
        "baseColorFactor": [
          0.0385,
          0.0385,
          0.0385,
          1.0
        ],
        "metallicFactor": 0.1,
        "roughnessFactor": 0.9
      },
      "name": "Color_007",
      "doubleSided": true
    },
    {
      "pbrMetallicRoughness": {
        "baseColorFactor": [
          0.0,
          0.0,
          0.0,
          1.0
        ],
        "metallicFactor": 0.1,
        "roughnessFactor": 0.9
      },
      "name": "Color_009",
      "doubleSided": true
    },
    {
      "pbrMetallicRoughness": {
        "baseColorTexture": {
          "index": 0
        },
        "metallicFactor": 0.1,
        "roughnessFactor": 0.9
      },
      "name": "Bild Mac.002.png.001"
    }
  ],
  "images": [
    {
      "bufferView": 0,
      "mimeType": "image/png"
    }
  ],
  "textures": [
    {
      "source": 0,
      "sampler": 0
    }
  ],
  "meshes": [
    {
      "primitives": [
        {
          "attributes": {
            "POSITION": 0,
            "NORMAL": 1
          },
          "indices": 5,
          "mode": 4,
          "material": 0
        },
        {
          "attributes": {
            "POSITION": 0,
            "NORMAL": 1
          },
          "indices": 6,
          "mode": 4,
          "material": 1
        }
      ]
    },
    {
      "primitives": [
        {
          "attributes": {
            "POSITION": 0,
            "NORMAL": 1
          },
          "indices": 7,
          "mode": 4,
          "material": 2
        },
        {
          "attributes": {
            "POSITION": 0,
            "NORMAL": 1
          },
          "indices": 8,
          "mode": 4,
          "material": 3
        },
        {
          "attributes": {
            "POSITION": 0,
            "NORMAL": 1
          },
          "indices": 9,
          "mode": 4,
          "material": 4
        },
        {
          "attributes": {
            "POSITION": 0,
            "NORMAL": 1
          },
          "indices": 10,
          "mode": 4,
          "material": 5
        }
      ]
    },
    {
      "primitives": [
        {
          "attributes": {
            "POSITION": 2,
            "NORMAL": 3,
            "TEXCOORD_0": 4
          },
          "indices": 11,
          "mode": 4,
          "material": 6
        }
      ]
    }
  ],
  "accessors": [
    {
      "bufferView": 1,
      "componentType": 5126,
      "count": 4993,
      "type": "VEC3",
      "min": [
        -0.32416282172429084,
        -0.005912140661507193,
        -0.13952394144862765
      ],
      "max": [
        0.31973238913215085,
        0.567685565470308,
        0.13560089646337942
      ]
    },
    {
      "bufferView": 2,
      "componentType": 5126,
      "count": 4993,
      "type": "VEC3",
      "min": [
        -0.9996904017288224,
        -1.0,
        -0.999889348780504
      ],
      "max": [
        0.9996904017288221,
        1.0,
        0.999998279798799
      ]
    },
    {
      "bufferView": 3,
      "componentType": 5126,
      "count": 4,
      "type": "VEC3",
      "min": [
        -0.2928072951866431,
        0.19724339153896372,
        0.02040356208222955
      ],
      "max": [
        0.2884527818229096,
        0.5355363668311666,
        0.04940545075684993
      ]
    },
    {
      "bufferView": 4,
      "componentType": 5126,
      "count": 4,
      "type": "VEC3",
      "min": [
        9.979423906143992e-16,
        0.08541677727512154,
        0.9963453086957013
      ],
      "max": [
        9.979423906143992e-16,
        0.08541677727512154,
        0.9963453086957013
      ]
    },
    {
      "bufferView": 5,
      "componentType": 5126,
      "count": 4,
      "type": "VEC2",
      "min": [
        0.021566698798855834,
        -6.661338147750939e-16
      ],
      "max": [
        0.9845304126557279,
        1.0000000000000002
      ]
    },
    {
      "bufferView": 6,
      "componentType": 5123,
      "count": 888,
      "type": "SCALAR"
    },
    {
      "bufferView": 6,
      "componentType": 5123,
      "count": 210,
      "type": "SCALAR",
      "byteOffset": 1776
    },
    {
      "bufferView": 6,
      "componentType": 5123,
      "count": 11325,
      "type": "SCALAR",
      "byteOffset": 2196
    },
    {
      "bufferView": 6,
      "componentType": 5123,
      "count": 3840,
      "type": "SCALAR",
      "byteOffset": 24846
    },
    {
      "bufferView": 6,
      "componentType": 5123,
      "count": 7200,
      "type": "SCALAR",
      "byteOffset": 32526
    },
    {
      "bufferView": 6,
      "componentType": 5123,
      "count": 477,
      "type": "SCALAR",
      "byteOffset": 46926
    },
    {
      "bufferView": 7,
      "componentType": 5121,
      "count": 6,
      "type": "SCALAR"
    }
  ],
  "bufferViews": [
    {
      "buffer": 0,
      "byteLength": 2097986
    },
    {
      "buffer": 0,
      "byteOffset": 2097996,
      "byteLength": 59916,
      "target": 34962,
      "byteStride": 12
    },
    {
      "buffer": 0,
      "byteOffset": 2157912,
      "byteLength": 59916,
      "target": 34962,
      "byteStride": 12
    },
    {
      "buffer": 0,
      "byteOffset": 2217828,
      "byteLength": 48,
      "target": 34962,
      "byteStride": 12
    },
    {
      "buffer": 0,
      "byteOffset": 2217876,
      "byteLength": 48,
      "target": 34962,
      "byteStride": 12
    },
    {
      "buffer": 0,
      "byteOffset": 2217928,
      "byteLength": 32,
      "target": 34962,
      "byteStride": 8
    },
    {
      "buffer": 0,
      "byteOffset": 2217960,
      "byteLength": 47880,
      "target": 34963
    },
    {
      "buffer": 0,
      "byteOffset": 2265840,
      "byteLength": 6,
      "target": 34963
    }
  ],
  "buffers": [
    {
      "uri": "data:application/octet-stream;base64,",
      "byteLength": 2265846
    }
  ]
}