{
  "asset": {
    "version": "2.0",
    "generator": "Sketchup glTF Exporter v1.2.6 by Centaur"
  },
  "scene": 0,
  "scenes": [
    {
      "nodes": [
        0
      ]
    }
  ],
  "samplers": [
    {
    }
  ],
  "nodes": [
    {
      "name": "root",
      "children": [
        1
      ]
    },
    {
      "name": "Komponente",
      "children": [
        2
      ]
    },
    {
      "children": [
        3,
        4,
        5,
        6,
        7
      ],
      "mesh": 5
    },
    {
      "mesh": 0
    },
    {
      "mesh": 1
    },
    {
      "mesh": 2
    },
    {
      "mesh": 3
    },
    {
      "mesh": 4
    }
  ],
  "materials": [
    {
      "pbrMetallicRoughness": {
        "baseColorTexture": {
          "index": 0
        },
        "roughnessFactor": 0.1
      },
      "name": "[Metal_Corrogated_Shiny]1"
    },
    {
      "pbrMetallicRoughness": {
        "baseColorFactor": [
          0.0,
          0.0,
          0.0,
          1.0
        ],
        "metallicFactor": 0.1,
        "roughnessFactor": 0.9
      },
      "name": "Color_009",
      "doubleSided": true
    },
    {
      "pbrMetallicRoughness": {
        "baseColorFactor": [
          0.2176,
          0.2176,
          0.2176,
          1.0
        ],
        "metallicFactor": 0.1,
        "roughnessFactor": 0.9
      },
      "name": "default material",
      "doubleSided": true
    },
    {
      "pbrMetallicRoughness": {
        "baseColorTexture": {
          "index": 1
        },
        "metallicFactor": 0.1,
        "roughnessFactor": 0.9
      },
      "name": "Wood_Floor_Light"
    },
    {
      "pbrMetallicRoughness": {
        "baseColorFactor": [
          1.0,
          1.0,
          1.0,
          1.0
        ],
        "metallicFactor": 0.1,
        "roughnessFactor": 0.9
      },
      "name": "Color_000"
    }
  ],
  "images": [
    {
      "bufferView": 0,
      "mimeType": "image/jpeg"
    },
    {
      "bufferView": 1,
      "mimeType": "image/jpeg"
    }
  ],
  "textures": [
    {
      "source": 0,
      "sampler": 0
    },
    {
      "source": 1,
      "sampler": 0
    }
  ],
  "meshes": [
    {
      "primitives": [
        {
          "attributes": {
            "POSITION": 2,
            "NORMAL": 3,
            "TEXCOORD_0": 4
          },
          "indices": 5,
          "mode": 4,
          "material": 0
        }
      ]
    },
    {
      "primitives": [
        {
          "attributes": {
            "POSITION": 2,
            "NORMAL": 3,
            "TEXCOORD_0": 4
          },
          "indices": 6,
          "mode": 4,
          "material": 0
        }
      ]
    },
    {
      "primitives": [
        {
          "attributes": {
            "POSITION": 2,
            "NORMAL": 3,
            "TEXCOORD_0": 4
          },
          "indices": 7,
          "mode": 4,
          "material": 0
        }
      ]
    },
    {
      "primitives": [
        {
          "attributes": {
            "POSITION": 2,
            "NORMAL": 3,
            "TEXCOORD_0": 4
          },
          "indices": 8,
          "mode": 4,
          "material": 0
        }
      ]
    },
    {
      "primitives": [
        {
          "attributes": {
            "POSITION": 2,
            "NORMAL": 3,
            "TEXCOORD_0": 4
          },
          "indices": 9,
          "mode": 4,
          "material": 0
        },
        {
          "attributes": {
            "POSITION": 0,
            "NORMAL": 1
          },
          "indices": 10,
          "mode": 4,
          "material": 1
        },
        {
          "attributes": {
            "POSITION": 2,
            "NORMAL": 3,
            "TEXCOORD_0": 4
          },
          "indices": 11,
          "mode": 4,
          "material": 3
        },
        {
          "attributes": {
            "POSITION": 0,
            "NORMAL": 1
          },
          "indices": 12,
          "mode": 4,
          "material": 2
        },
        {
          "attributes": {
            "POSITION": 0,
            "NORMAL": 1
          },
          "indices": 13,
          "mode": 4,
          "material": 4
        }
      ]
    },
    {
      "primitives": [
        {
          "attributes": {
            "POSITION": 2,
            "NORMAL": 3,
            "TEXCOORD_0": 4
          },
          "indices": 14,
          "mode": 4,
          "material": 0
        },
        {
          "attributes": {
            "POSITION": 0,
            "NORMAL": 1
          },
          "indices": 15,
          "mode": 4,
          "material": 1
        },
        {
          "attributes": {
            "POSITION": 0,
            "NORMAL": 1
          },
          "indices": 16,
          "mode": 4,
          "material": 2
        }
      ]
    }
  ],
  "accessors": [
    {
      "bufferView": 2,
      "componentType": 5126,
      "count": 1720,
      "type": "VEC3",
      "min": [
        -0.7014826609616419,
        -1.923537155226186e-17,
        -0.40259607584886253
      ],
      "max": [
        0.69999879585916,
        0.7390000000000024,
        0.39999931191952015
      ]
    },
    {
      "bufferView": 3,
      "componentType": 5126,
      "count": 1720,
      "type": "VEC3",
      "min": [
        -0.9999982797987993,
        -1.0,
        -0.9999982797987993
      ],
      "max": [
        0.9999982797987993,
        1.0,
        0.9999982797987993
      ]
    },
    {
      "bufferView": 4,
      "componentType": 5126,
      "count": 4193,
      "type": "VEC3",
      "min": [
        -0.7014826609616419,
        0.004999999999999978,
        -0.40259607584886253
      ],
      "max": [
        0.69999879585916,
        0.7390000000000024,
        0.39999931191952015
      ]
    },
    {
      "bufferView": 5,
      "componentType": 5126,
      "count": 4193,
      "type": "VEC3",
      "min": [
        -0.9999982797988,
        -1.0,
        -0.9999982797988012
      ],
      "max": [
        0.9999982797988,
        1.0,
        0.9999982797988012
      ]
    },
    {
      "bufferView": 6,
      "componentType": 5126,
      "count": 4193,
      "type": "VEC2",
      "min": [
        -1.5566009022766871,
        -0.5601154514332272
      ],
      "max": [
        1.5566009022766871,
        2.3286473448248524
      ]
    },
    {
      "bufferView": 8,
      "componentType": 5123,
      "count": 48,
      "type": "SCALAR"
    },
    {
      "bufferView": 8,
      "componentType": 5123,
      "count": 48,
      "type": "SCALAR",
      "byteOffset": 96
    },
    {
      "bufferView": 8,
      "componentType": 5123,
      "count": 48,
      "type": "SCALAR",
      "byteOffset": 192
    },
    {
      "bufferView": 8,
      "componentType": 5123,
      "count": 48,
      "type": "SCALAR",
      "byteOffset": 288
    },
    {
      "bufferView": 8,
      "componentType": 5123,
      "count": 1344,
      "type": "SCALAR",
      "byteOffset": 384
    },
    {
      "bufferView": 7,
      "componentType": 5123,
      "count": 576,
      "type": "SCALAR"
    },
    {
      "bufferView": 8,
      "componentType": 5123,
      "count": 24,
      "type": "SCALAR",
      "byteOffset": 3072
    },
    {
      "bufferView": 7,
      "componentType": 5123,
      "count": 264,
      "type": "SCALAR",
      "byteOffset": 1152
    },
    {
      "bufferView": 7,
      "componentType": 5123,
      "count": 324,
      "type": "SCALAR",
      "byteOffset": 1680
    },
    {
      "bufferView": 8,
      "componentType": 5123,
      "count": 7080,
      "type": "SCALAR",
      "byteOffset": 3120
    },
    {
      "bufferView": 7,
      "componentType": 5123,
      "count": 2640,
      "type": "SCALAR",
      "byteOffset": 2328
    },
    {
      "bufferView": 7,
      "componentType": 5123,
      "count": 132,
      "type": "SCALAR",
      "byteOffset": 7608
    }
  ],
  "bufferViews": [
    {
      "buffer": 0,
      "byteLength": 1594
    },
    {
      "buffer": 0,
      "byteOffset": 1594,
      "byteLength": 39446
    },
    {
      "buffer": 0,
      "byteOffset": 41040,
      "byteLength": 20640,
      "target": 34962,
      "byteStride": 12
    },
    {
      "buffer": 0,
      "byteOffset": 61680,
      "byteLength": 20640,
      "target": 34962,
      "byteStride": 12
    },
    {
      "buffer": 0,
      "byteOffset": 82320,
      "byteLength": 50316,
      "target": 34962,
      "byteStride": 12
    },
    {
      "buffer": 0,
      "byteOffset": 132636,
      "byteLength": 50316,
      "target": 34962,
      "byteStride": 12
    },
    {
      "buffer": 0,
      "byteOffset": 182952,
      "byteLength": 33544,
      "target": 34962,
      "byteStride": 8
    },
    {
      "buffer": 0,
      "byteOffset": 216496,
      "byteLength": 7872,
      "target": 34963
    },
    {
      "buffer": 0,
      "byteOffset": 224368,
      "byteLength": 17280,
      "target": 34963
    }
  ],
  "buffers": [
    {
      "uri": "data:application/octet-stream;base64,",
      "byteLength": 241648
    }
  ]
}