{
  "asset": {
    "version": "2.0",
    "generator": "Sketchup glTF Exporter v1.2.6 by Centaur"
  },
  "scene": 0,
  "scenes": [
    {
      "nodes": [
        0
      ]
    }
  ],
  "samplers": [
    {
    }
  ],
  "nodes": [
    {
      "name": "root",
      "children": [
        1
      ]
    },
    {
      "children": [
        2,
        4,
        5
      ]
    },
    {
      "children": [
        3
      ],
      "mesh": 1
    },
    {
      "mesh": 0
    },
    {
      "mesh": 2
    },
    {
      "children": [
        6,
        7
      ]
    },
    {
      "mesh": 3
    },
    {
      "mesh": 4
    }
  ],
  "materials": [
    {
      "pbrMetallicRoughness": {
        "baseColorFactor": [
          0.2176,
          0.2176,
          0.2176,
          1.0
        ],
        "metallicFactor": 0.1,
        "roughnessFactor": 0.9
      },
      "name": "default material",
      "doubleSided": true
    },
    {
      "pbrMetallicRoughness": {
        "baseColorFactor": [
          0.1275,
          0.3066,
          0.8513,
          0.5
        ],
        "metallicFactor": 0.1,
        "roughnessFactor": 0.9
      },
      "name": "Material18",
      "doubleSided": true,
      "alphaMode": "BLEND"
    },
    {
      "pbrMetallicRoughness": {
        "baseColorFactor": [
          0.4591,
          0.4591,
          0.4591,
          1.0
        ],
        "metallicFactor": 0.1,
        "roughnessFactor": 0.9
      },
      "name": "Material9",
      "doubleSided": true
    }
  ],
  "meshes": [
    {
      "primitives": [
        {
          "attributes": {
            "POSITION": 0,
            "NORMAL": 1
          },
          "indices": 2,
          "mode": 4,
          "material": 1
        }
      ]
    },
    {
      "primitives": [
        {
          "attributes": {
            "POSITION": 0,
            "NORMAL": 1
          },
          "indices": 3,
          "mode": 4,
          "material": 0
        }
      ]
    },
    {
      "primitives": [
        {
          "attributes": {
            "POSITION": 0,
            "NORMAL": 1
          },
          "indices": 4,
          "mode": 4,
          "material": 0
        }
      ]
    },
    {
      "primitives": [
        {
          "attributes": {
            "POSITION": 0,
            "NORMAL": 1
          },
          "indices": 5,
          "mode": 4,
          "material": 0
        }
      ]
    },
    {
      "primitives": [
        {
          "attributes": {
            "POSITION": 0,
            "NORMAL": 1
          },
          "indices": 6,
          "mode": 4,
          "material": 2
        }
      ]
    }
  ],
  "accessors": [
    {
      "bufferView": 0,
      "componentType": 5126,
      "count": 1988,
      "type": "VEC3",
      "min": [
        -0.793189058733398,
        -2.2776335924074824e-15,
        -0.960928120587732
      ],
      "max": [
        0.5073109270432833,
        2.300000000000003,
        0.0039023917464861145
      ]
    },
    {
      "bufferView": 1,
      "componentType": 5126,
      "count": 1988,
      "type": "VEC3",
      "min": [
        -0.9999704155140984,
        -1.0,
        -0.999970415514098
      ],
      "max": [
        0.9999704155140985,
        1.0,
        0.9999704155140982
      ]
    },
    {
      "bufferView": 2,
      "componentType": 5123,
      "count": 84,
      "type": "SCALAR"
    },
    {
      "bufferView": 2,
      "componentType": 5123,
      "count": 216,
      "type": "SCALAR",
      "byteOffset": 168
    },
    {
      "bufferView": 2,
      "componentType": 5123,
      "count": 516,
      "type": "SCALAR",
      "byteOffset": 600
    },
    {
      "bufferView": 2,
      "componentType": 5123,
      "count": 240,
      "type": "SCALAR",
      "byteOffset": 1632
    },
    {
      "bufferView": 2,
      "componentType": 5123,
      "count": 4476,
      "type": "SCALAR",
      "byteOffset": 2112
    }
  ],
  "bufferViews": [
    {
      "buffer": 0,
      "byteLength": 23856,
      "target": 34962,
      "byteStride": 12
    },
    {
      "buffer": 0,
      "byteOffset": 23856,
      "byteLength": 23856,
      "target": 34962,
      "byteStride": 12
    },
    {
      "buffer": 0,
      "byteOffset": 47712,
      "byteLength": 11064,
      "target": 34963
    }
  ],
  "buffers": [
    {
      "uri": "data:application/octet-stream;base64,",
      "byteLength": 58776
    }
  ]
}