{
  "asset": {
    "version": "2.0",
    "generator": "Sketchup glTF Exporter v1.2.6 by Centaur"
  },
  "scene": 0,
  "scenes": [
    {
      "nodes": [
        0
      ]
    }
  ],
  "samplers": [
    {
    }
  ],
  "nodes": [
    {
      "name": "root",
      "children": [
        1,
        2,
        4
      ]
    },
    {
      "mesh": 0
    },
    {
      "name": "Komponente#3",
      "children": [
        3
      ]
    },
    {
      "mesh": 1
    },
    {
      "name": "pote",
      "children": [
        5
      ]
    },
    {
      "name": "Component#78",
      "children": [
        6
      ]
    },
    {
      "name": "Component#79",
      "mesh": 2
    }
  ],
  "materials": [
    {
      "pbrMetallicRoughness": {
        "baseColorTexture": {
          "index": 0
        },
        "metallicFactor": 0.1,
        "roughnessFactor": 0.9
      },
      "name": "leaf"
    },
    {
      "pbrMetallicRoughness": {
        "baseColorFactor": [
          0.1139,
          0.2158,
          0.0461,
          1.0
        ],
        "metallicFactor": 0.1,
        "roughnessFactor": 0.9
      },
      "name": "Material7"
    },
    {
      "pbrMetallicRoughness": {
        "baseColorTexture": {
          "index": 1
        },
        "metallicFactor": 0.1,
        "roughnessFactor": 0.9
      },
      "name": "Vegetation_Grass_Artificial"
    },
    {
      "pbrMetallicRoughness": {
        "baseColorFactor": [
          0.029,
          0.0084,
          0.0008,
          1.0
        ],
        "metallicFactor": 0.1,
        "roughnessFactor": 0.9
      },
      "name": "<auto>2",
      "doubleSided": true
    },
    {
      "pbrMetallicRoughness": {
        "baseColorFactor": [
          0.043,
          0.1332,
          0.0033,
          1.0
        ],
        "metallicFactor": 0.1,
        "roughnessFactor": 0.9
      },
      "name": "<auto>4",
      "doubleSided": true
    },
    {
      "pbrMetallicRoughness": {
        "baseColorFactor": [
          0.029,
          0.0055,
          0.0,
          1.0
        ],
        "metallicFactor": 0.1,
        "roughnessFactor": 0.9
      },
      "name": "<auto>",
      "doubleSided": true
    },
    {
      "pbrMetallicRoughness": {
        "baseColorFactor": [
          0.1332,
          0.043,
          0.0033,
          1.0
        ],
        "metallicFactor": 0.1,
        "roughnessFactor": 0.9
      },
      "name": "<auto>3",
      "doubleSided": true
    },
    {
      "pbrMetallicRoughness": {
        "baseColorFactor": [
          1.0,
          1.0,
          1.0,
          1.0
        ],
        "metallicFactor": 0.1,
        "roughnessFactor": 0.9
      },
      "name": "Material19"
    },
    {
      "pbrMetallicRoughness": {
        "baseColorTexture": {
          "index": 2
        },
        "metallicFactor": 0.1,
        "roughnessFactor": 0.9
      },
      "name": "Material39"
    }
  ],
  "images": [
    {
      "bufferView": 0,
      "mimeType": "image/jpeg"
    },
    {
      "bufferView": 1,
      "mimeType": "image/jpeg"
    },
    {
      "bufferView": 2,
      "mimeType": "image/jpeg"
    }
  ],
  "textures": [
    {
      "source": 0,
      "sampler": 0
    },
    {
      "source": 1,
      "sampler": 0
    },
    {
      "source": 2,
      "sampler": 0
    }
  ],
  "meshes": [
    {
      "primitives": [
        {
          "attributes": {
            "POSITION": 2,
            "NORMAL": 3,
            "TEXCOORD_0": 4
          },
          "indices": 5,
          "mode": 4,
          "material": 0
        },
        {
          "attributes": {
            "POSITION": 0,
            "NORMAL": 1
          },
          "indices": 6,
          "mode": 4,
          "material": 1
        },
        {
          "attributes": {
            "POSITION": 2,
            "NORMAL": 3,
            "TEXCOORD_0": 4
          },
          "indices": 7,
          "mode": 4,
          "material": 2
        }
      ]
    },
    {
      "primitives": [
        {
          "attributes": {
            "POSITION": 0,
            "NORMAL": 1
          },
          "indices": 8,
          "mode": 4,
          "material": 3
        },
        {
          "attributes": {
            "POSITION": 0,
            "NORMAL": 1
          },
          "indices": 9,
          "mode": 4,
          "material": 4
        },
        {
          "attributes": {
            "POSITION": 0,
            "NORMAL": 1
          },
          "indices": 10,
          "mode": 4,
          "material": 5
        },
        {
          "attributes": {
            "POSITION": 0,
            "NORMAL": 1
          },
          "indices": 11,
          "mode": 4,
          "material": 6
        }
      ]
    },
    {
      "primitives": [
        {
          "attributes": {
            "POSITION": 0,
            "NORMAL": 1
          },
          "indices": 12,
          "mode": 4,
          "material": 7
        },
        {
          "attributes": {
            "POSITION": 2,
            "NORMAL": 3,
            "TEXCOORD_0": 4
          },
          "indices": 13,
          "mode": 4,
          "material": 8
        }
      ]
    }
  ],
  "accessors": [
    {
      "bufferView": 3,
      "componentType": 5126,
      "count": 2416,
      "type": "VEC3",
      "min": [
        -0.15792223402212693,
        1.4235364632868717e-16,
        -0.1185090305146734
      ],
      "max": [
        0.11756190651059203,
        0.3562142444162399,
        0.10974252267676898
      ]
    },
    {
      "bufferView": 4,
      "componentType": 5126,
      "count": 2416,
      "type": "VEC3",
      "min": [
        -1.0,
        -1.0,
        -0.9999999999999991
      ],
      "max": [
        1.0,
        1.0,
        0.9999999999999992
      ]
    },
    {
      "bufferView": 5,
      "componentType": 5126,
      "count": 9432,
      "type": "VEC3",
      "min": [
        -0.15792223402212693,
        0.011546850730287458,
        -0.16937815713415075
      ],
      "max": [
        0.17186950397277448,
        0.3999515605448098,
        0.14750800848856382
      ]
    },
    {
      "bufferView": 6,
      "componentType": 5126,
      "count": 9432,
      "type": "VEC3",
      "min": [
        -1.0,
        -1.0,
        -0.9975141156842037
      ],
      "max": [
        1.0,
        0.9761978471417198,
        0.9984332528227914
      ]
    },
    {
      "bufferView": 7,
      "componentType": 5126,
      "count": 9432,
      "type": "VEC2",
      "min": [
        -0.9225329331599914,
        -1.2877932450498912
      ],
      "max": [
        2.869549365744308,
        2.69815422450057
      ]
    },
    {
      "bufferView": 9,
      "componentType": 5123,
      "count": 9651,
      "type": "SCALAR"
    },
    {
      "bufferView": 8,
      "componentType": 5123,
      "count": 360,
      "type": "SCALAR"
    },
    {
      "bufferView": 9,
      "componentType": 5123,
      "count": 960,
      "type": "SCALAR",
      "byteOffset": 19302
    },
    {
      "bufferView": 8,
      "componentType": 5123,
      "count": 276,
      "type": "SCALAR",
      "byteOffset": 720
    },
    {
      "bufferView": 8,
      "componentType": 5123,
      "count": 276,
      "type": "SCALAR",
      "byteOffset": 1272
    },
    {
      "bufferView": 8,
      "componentType": 5123,
      "count": 210,
      "type": "SCALAR",
      "byteOffset": 1824
    },
    {
      "bufferView": 8,
      "componentType": 5123,
      "count": 144,
      "type": "SCALAR",
      "byteOffset": 2244
    },
    {
      "bufferView": 8,
      "componentType": 5123,
      "count": 9708,
      "type": "SCALAR",
      "byteOffset": 2532
    },
    {
      "bufferView": 9,
      "componentType": 5123,
      "count": 9360,
      "type": "SCALAR",
      "byteOffset": 21222
    }
  ],
  "bufferViews": [
    {
      "buffer": 0,
      "byteLength": 45803
    },
    {
      "buffer": 0,
      "byteOffset": 45803,
      "byteLength": 53339
    },
    {
      "buffer": 0,
      "byteOffset": 99142,
      "byteLength": 846396
    },
    {
      "buffer": 0,
      "byteOffset": 945540,
      "byteLength": 28992,
      "target": 34962,
      "byteStride": 12
    },
    {
      "buffer": 0,
      "byteOffset": 974532,
      "byteLength": 28992,
      "target": 34962,
      "byteStride": 12
    },
    {
      "buffer": 0,
      "byteOffset": 1003524,
      "byteLength": 113184,
      "target": 34962,
      "byteStride": 12
    },
    {
      "buffer": 0,
      "byteOffset": 1116708,
      "byteLength": 113184,
      "target": 34962,
      "byteStride": 12
    },
    {
      "buffer": 0,
      "byteOffset": 1229896,
      "byteLength": 75456,
      "target": 34962,
      "byteStride": 8
    },
    {
      "buffer": 0,
      "byteOffset": 1305352,
      "byteLength": 21948,
      "target": 34963
    },
    {
      "buffer": 0,
      "byteOffset": 1327300,
      "byteLength": 39942,
      "target": 34963
    }
  ],
  "buffers": [
    {
      "uri": "data:application/octet-stream;base64,",
      "byteLength": 1367242
    }
  ]
}