<?xml version="1.0" encoding="UTF-8" standalone="no"?>
<svg

   xmlns="http://www.w3.org/2000/svg"
   id="svg317"
   version="1.2"
   viewBox="0 0 225 70"
   height="70pt"
   width="225pt">

  <!-- LOGO -->
    
  <path
     id="Logo"
     d="M 0 14.3984 C 0 14.3984 0 13.0195 1.23438 12.4023 L 24.2773 0.867188 C 24.2773 0.867188 25.5117 0.253906 26.8047 0.738281 L 75.2461 18.9219 C 75.2461 18.9219 76.5352 19.4063 76.5352 20.7813 V 56.3359 C 76.5352 56.3359 76.5352 57.7109 75.3047 58.3281 L 52.2578 69.8633 C 52.2578 69.8633 51.0234 70.4805 51.0234 69.1016 V 49.5117 C 51.0234 49.5117 51.0234 48.1328 49.7891 48.75 L 26.7461 60.2852 C 26.7461 60.2852 25.5117 60.9023 25.5117 59.5273 V 39.9336 C 25.5117 39.9336 25.5117 38.5586 24.2773 39.1758 L 1.23438 50.7109 C 1.23438 50.7109 0 51.3242 0 49.9492 V 14.3984"
     style="clip-rule:nonzero;fill:#bf0061;fill-opacity:1;fill-rule:nonzero;stroke:none" />

</svg>
