<?xml version="1.0" encoding="UTF-8" standalone="no"?>
<svg

   xmlns="http://www.w3.org/2000/svg"
   id="svg317"
   version="1.2"
   viewBox="0 0 225 70"
   height="70pt"
   width="225pt">

  <!-- LOGO -->
    
  <path
     id="Logo"
     d="M 0 14.3984 C 0 14.3984 0 13.0195 1.23438 12.4023 L 24.2773 0.867188 C 24.2773 0.867188 25.5117 0.253906 26.8047 0.738281 L 75.2461 18.9219 C 75.2461 18.9219 76.5352 19.4063 76.5352 20.7813 V 56.3359 C 76.5352 56.3359 76.5352 57.7109 75.3047 58.3281 L 52.2578 69.8633 C 52.2578 69.8633 51.0234 70.4805 51.0234 69.1016 V 49.5117 C 51.0234 49.5117 51.0234 48.1328 49.7891 48.75 L 26.7461 60.2852 C 26.7461 60.2852 25.5117 60.9023 25.5117 59.5273 V 39.9336 C 25.5117 39.9336 25.5117 38.5586 24.2773 39.1758 L 1.23438 50.7109 C 1.23438 50.7109 0 51.3242 0 49.9492 V 14.3984"
     style="clip-rule:nonzero;fill:#bf0061;fill-opacity:1;fill-rule:nonzero;stroke:none" />

        
  <!-- GESTALTUNG -->
    
  <path
     id="p01_G"
     d="M 96.4063 9.31892 C 96.4063 9.2408 96.3281 9.16267 96.2344 9.16267 H 93.9219 C 93.8281 9.16267 93.7344 9.2408 93.7344 9.31892 V 9.94392 C 93.7344 10.0377 93.8281 10.1002 93.9219 10.1002 H 95.4688 V 12.6158 C 95.4688 13.3814 94.8438 14.022 94.0625 14.022 H 93.5938 C 92.8125 14.022 92.1875 13.3814 92.1875 12.6158 V 6.64705 C 92.1875 5.89705 92.8125 5.2408 93.5938 5.2408 H 94.0625 C 94.8438 5.2408 95.4688 5.89705 95.4688 6.64705 V 6.97517 C 95.4688 7.0533 95.5313 7.13142 95.625 7.13142 H 96.2344 C 96.3281 7.13142 96.4063 7.0533 96.4063 6.97517 V 6.64705 C 96.4063 5.3658 95.3594 4.3033 94.0625 4.3033 H 93.5938 C 92.2969 4.3033 91.25 5.3658 91.25 6.64705 V 12.6158 C 91.25 13.9127 92.2969 14.9595 93.5938 14.9595 H 94.0625 C 95.3594 14.9595 96.4063 13.9127 96.4063 12.6158 Z"
     style="fill:#000000;fill-opacity:1;stroke:none" />
  <path
     id="p02_E"
     d="M 103.85 14.0064 C 103.85 13.9127 103.788 13.8658 103.71 13.8658 H 99.7879 V 10.1002 H 103.382 C 103.46 10.1002 103.538 10.0377 103.538 9.94392 V 9.31892 C 103.538 9.2408 103.46 9.16267 103.382 9.16267 H 99.7879 V 5.4283 H 103.71 C 103.788 5.4283 103.85 5.35017 103.85 5.25642 V 4.63142 C 103.85 4.53767 103.788 4.47517 103.71 4.47517 H 99.0066 C 98.9285 4.47517 98.8504 4.53767 98.8504 4.63142 V 14.647 C 98.8504 14.7252 98.9285 14.8033 99.0066 14.8033 H 103.71 C 103.788 14.8033 103.85 14.7252 103.85 14.647 Z"
     style="fill:#000000;fill-opacity:1;stroke:none" />
  <path
     id="p03_S"
     d="M 111.232 12.147 C 111.232 9.00642 106.998 9.41267 106.998 7.13142 V 6.64705 C 106.998 5.88142 107.638 5.2408 108.404 5.2408 H 108.716 C 109.482 5.2408 110.123 5.88142 110.123 6.64705 V 6.97517 C 110.123 7.0533 110.201 7.13142 110.279 7.13142 H 110.904 C 110.998 7.13142 111.076 7.0533 111.076 6.97517 V 6.64705 C 111.076 5.3658 110.013 4.3033 108.716 4.3033 H 108.404 C 107.107 4.3033 106.045 5.3658 106.045 6.64705 V 7.13142 C 106.045 10.147 110.279 9.70955 110.279 12.147 V 12.6158 C 110.279 13.3814 109.654 14.022 108.857 14.022 H 108.263 C 107.466 14.022 106.841 13.3814 106.841 12.6158 V 12.2877 C 106.841 12.2095 106.763 12.147 106.67 12.147 H 106.045 C 105.951 12.147 105.888 12.2095 105.888 12.2877 V 12.6158 C 105.888 13.9127 106.951 14.9595 108.263 14.9595 H 108.857 C 110.17 14.9595 111.232 13.9127 111.232 12.6158 M 111.232 12.147 Z"
     style="fill:#000000;fill-opacity:1;stroke:none" />
  <path
     id="p04_T"
     d="M 118.159 4.63142 C 118.159 4.53767 118.081 4.47517 118.002 4.47517 H 112.69 C 112.612 4.47517 112.534 4.53767 112.534 4.63142 V 5.25642 C 112.534 5.35017 112.612 5.4283 112.69 5.4283 H 114.862 V 14.647 C 114.862 14.7252 114.955 14.8033 115.049 14.8033 H 115.643 C 115.737 14.8033 115.83 14.7252 115.83 14.647 V 5.4283 H 118.002 C 118.08 5.4283 118.159 5.35017 118.159 5.25642 Z M 118.159 4.63142"
     style="fill:#000000;fill-opacity:1;stroke:none" />
  <path
     id="p05_A"
     d="M 124.938 10.8033 L 123.313 4.63142 C 123.282 4.52205 123.203 4.47517 123.125 4.47517 H 121.719 C 121.641 4.47517 121.563 4.52205 121.532 4.63142 L 119.907 10.8033 V 14.647 C 119.907 14.7252 119.985 14.8033 120.078 14.8033 H 120.703 C 120.781 14.8033 120.86 14.7252 120.86 14.647 V 11.3658 H 123.985 V 14.647 C 123.985 14.7252 124.063 14.8033 124.141 14.8033 H 124.766 C 124.86 14.8033 124.938 14.7252 124.938 14.647 Z M 123.844 10.4283 H 121 L 122.313 5.4283 H 122.532  M 123.844 10.4283 Z"
     style="fill:#000000;fill-opacity:1;stroke:none" />
  <path
     id="p06_L"
     d="M 132.601 14.0064 C 132.601 13.9127 132.523 13.8658 132.444 13.8658 H 128.866 V 4.63142 C 128.866 4.53767 128.773 4.47517 128.679 4.47517 H 128.069 C 127.991 4.47517 127.913 4.53767 127.913 4.63142 V 14.647 C 127.913 14.7252 127.991 14.8033 128.069 14.8033 H 132.444 C 132.522 14.8033 132.601 14.7252 132.601 14.647 Z"
     style="fill:#000000;fill-opacity:1;stroke:none" />
  <path
     id="p07_T"
     d="M 138.517 4.63142 C 138.517 4.53767 138.439 4.47517 138.36 4.47517 H 133.048 C 132.97 4.47517 132.892 4.53767 132.892 4.63142 V 5.25642 C 132.892 5.35017 132.97 5.4283 133.048 5.4283 H 135.22 V 14.647 C 135.22 14.7252 135.313 14.8033 135.407 14.8033 H 136.001 C 136.095 14.8033 136.189 14.7252 136.189 14.647 V 5.4283 H 138.36 C 138.438 5.4283 138.517 5.35017 138.517 5.25642 Z"
     style="fill:#000000;fill-opacity:1;stroke:none" />
  <path
     id="p08_U"
     d="M 145.441 4.63142 C 145.441 4.53767 145.363 4.47517 145.269 4.47517 H 144.644 C 144.566 4.47517 144.488 4.53767 144.488 4.63142 V 12.6158 C 144.488 13.3814 143.847 14.022 143.081 14.022 H 142.769 C 142.003 14.022 141.363 13.3814 141.363 12.6158 V 4.63142 C 141.363 4.53767 141.285 4.47517 141.206 4.47517 H 140.581 C 140.488 4.47517 140.41 4.53767 140.41 4.63142 V 12.6158 C 140.41 13.9127 141.472 14.9595 142.769 14.9595 H 143.081 C 144.378 14.9595 145.441 13.9127 145.441 12.6158 Z M 145.441 4.63142"
     style="fill:#000000;fill-opacity:1;stroke:none" />
  <path
     id="p09_N"
     d="M 153.59 4.63142 C 153.59 4.53767 153.512 4.47517 153.434 4.47517 H 152.793 C 152.746 4.47517 152.652 4.53767 152.652 4.63142 V 12.4595 C 152.652 12.772 152.746 13.4595 152.762 13.6002 H 152.465 C 152.449 13.4595 152.371 12.772 152.262 12.4595 L 149.809 4.60017 C 149.777 4.50642 149.699 4.47517 149.652 4.47517 H 148.309 C 148.231 4.47517 148.152 4.53767 148.152 4.63142 V 14.647 C 148.152 14.7252 148.23 14.8033 148.309 14.8033 H 148.949 C 148.996 14.8033 149.09 14.7252 149.09 14.647 V 6.81892 C 149.09 6.50642 148.996 5.81892 148.98 5.66267 H 149.277 C 149.293 5.81892 149.371 6.50642 149.48 6.81892 L 151.949 14.7095 C 151.98 14.772 152.027 14.8033 152.09 14.8033 H 153.434 C 153.512 14.8033 153.59 14.7252 153.59 14.647 Z"
     style="fill:#000000;fill-opacity:1;stroke:none" />
  <path
     id="p10_G"
     d="M 161.395 9.31892 C 161.395 9.2408 161.317 9.16267 161.223 9.16267 H 158.911 C 158.817 9.16267 158.723 9.2408 158.723 9.31892 V 9.94392 C 158.723 10.0377 158.817 10.1002 158.911 10.1002 H 160.458 V 12.6158 C 160.458 13.3814 159.833 14.022 159.051 14.022 H 158.583 C 157.801 14.022 157.176 13.3814 157.176 12.6158 V 6.64705 C 157.176 5.89705 157.801 5.2408 158.583 5.2408 H 159.051 C 159.833 5.2408 160.458 5.89705 160.458 6.64705 V 6.97517 C 160.458 7.0533 160.52 7.13142 160.614 7.13142 H 161.223 C 161.317 7.13142 161.395 7.0533 161.395 6.97517 V 6.64705 C 161.395 5.3658 160.348 4.3033 159.051 4.3033 H 158.583 C 157.286 4.3033 156.239 5.3658 156.239 6.64705 V 12.6158 C 156.239 13.9127 157.286 14.9595 158.583 14.9595 H 159.051 C 160.348 14.9595 161.395 13.9127 161.395 12.6158 Z"
     style="fill:#000000;fill-opacity:1;stroke:none" />
    
  <!-- HOCHSCHULE -->
    
  <path
     id="p11_H"
     d="M 96.6719 31.8033 C 96.9375 31.8033 97.1563 31.6002 97.1563 31.3189 V 20.8971 C 97.1563 20.6158 96.9375 20.4127 96.6719 20.4127 H 96 C 95.7344 20.4127 95.5156 20.6158 95.5156 20.8971 V 25.2877 H 92.9219 V 20.8971 C 92.9219 20.6158 92.7188 20.4127 92.4531 20.4127 H 91.7813 C 91.5 20.4127 91.2969 20.6158 91.2969 20.8971 V 31.3189 C 91.2969 31.6002 91.5 31.8033 91.7813 31.8033 H 92.4531 C 92.7188 31.8033 92.9219 31.6002 92.9219 31.3189 V 26.9283 H 95.5156 V 31.3189 C 95.5156 31.6002 95.7344 31.8033 96 31.8033 Z"
     style="fill:#000000;fill-opacity:1;stroke:none" />
  <path
     id="p12_O"
     d="M 99.6348 29.2096 C 99.6348 30.7252 100.885 31.9752 102.4 31.9752 H 102.885 C 104.4 31.9752 105.65 30.7252 105.65 29.2096 V 23.0064 C 105.65 21.4596 104.4 20.2408 102.885 20.2408 H 102.4 C 100.885 20.2408 99.6348 21.4596 99.6348 23.0064 Z M 101.26 23.0064 C 101.26 22.3814 101.76 21.8658 102.4 21.8658 H 102.885 C 103.525 21.8658 104.01 22.3814 104.01 23.0064 V 29.2096 C 104.01 29.8346 103.525 30.3502 102.885 30.3502 H 102.4 C 101.76 30.3502 101.26 29.8346 101.26 29.2096 M 101.26 23.0064 Z"
     style="fill:#000000;fill-opacity:1;stroke:none" />
  <path
     id="p13_C"
     d="M 111.379 31.9752 C 112.91 31.9752 114.16 30.7408 114.16 29.2096 V 28.6939 C 114.16 28.4283 113.957 28.2252 113.676 28.2252 H 113.004 C 112.738 28.2252 112.535 28.4283 112.535 28.6939 V 29.2096 C 112.535 29.8346 112.02 30.3502 111.379 30.3502 H 110.879 C 110.254 30.3502 109.738 29.8346 109.738 29.2096 V 23.0064 C 109.738 22.3814 110.254 21.8658 110.879 21.8658 H 111.379 C 112.02 21.8658 112.535 22.3814 112.535 23.0064 V 23.3346 C 112.535 23.6158 112.738 23.8189 113.004 23.8189 H 113.676 C 113.957 23.8189 114.16 23.6158 114.16 23.3346 V 23.0064 C 114.16 21.4908 112.91 20.2408 111.379 20.2408 H 110.879 C 109.363 20.2408 108.113 21.4908 108.113 23.0064 V 29.2096 C 108.113 30.7408 109.363 31.9752 110.879 31.9752 Z"
     style="fill:#000000;fill-opacity:1;stroke:none" />
  <path
     id="p14_H"
     d="M 121.92 31.8033 C 122.186 31.8033 122.404 31.6002 122.404 31.3189 V 20.8971 C 122.404 20.6158 122.186 20.4127 121.92 20.4127 H 121.248 C 120.982 20.4127 120.764 20.6158 120.764 20.8971 V 25.2877 H 118.17 V 20.8971 C 118.17 20.6158 117.967 20.4127 117.701 20.4127 H 117.029 C 116.748 20.4127 116.545 20.6158 116.545 20.8971 V 31.3189 C 116.545 31.6002 116.748 31.8033 117.029 31.8033 H 117.701 C 117.967 31.8033 118.17 31.6002 118.17 31.3189 V 26.9283 H 120.764 V 31.3189 C 120.764 31.6002 120.982 31.8033 121.248 31.8033 Z"
     style="fill:#000000;fill-opacity:1;stroke:none" />
  <path
     id="p15_S"
     d="M 128.211 31.9752 C 129.742 31.9752 130.977 30.7252 130.977 29.2096 V 28.6939 C 130.977 25.2408 126.57 25.5533 126.57 23.5064 V 23.0064 C 126.57 22.3814 127.086 21.8658 127.711 21.8658 H 128.07 C 128.695 21.8658 129.195 22.3814 129.195 23.0064 V 23.3346 C 129.195 23.6158 129.414 23.8189 129.68 23.8189 H 130.352 C 130.617 23.8189 130.836 23.6158 130.836 23.3346 V 23.0064 C 130.836 21.4908 129.586 20.2408 128.07 20.2408 H 127.711 C 126.195 20.2408 124.945 21.4908 124.945 23.0064 V 23.5064 C 124.945 26.8658 129.352 26.4752 129.352 28.6939 V 29.2096 C 129.352 29.8346 128.852 30.3502 128.211 30.3502 H 127.57 C 126.93 30.3502 126.43 29.8346 126.43 29.2096 V 28.8658 C 126.43 28.5846 126.227 28.3814 125.945 28.3814 H 125.273 C 125.008 28.3814 124.805 28.5846 124.805 28.8658 V 29.2096 C 124.805 30.7252 126.039 31.9752 127.57 31.9752 Z"
     style="fill:#000000;fill-opacity:1;stroke:none" />
  <path
     id="p16_C"
     d="M 136.627 31.9752 C 138.158 31.9752 139.408 30.7408 139.408 29.2096 V 28.6939 C 139.408 28.4283 139.205 28.2252 138.924 28.2252 H 138.252 C 137.986 28.2252 137.783 28.4283 137.783 28.6939 V 29.2096 C 137.783 29.8346 137.268 30.3502 136.627 30.3502 H 136.127 C 135.502 30.3502 134.986 29.8346 134.986 29.2096 V 23.0064 C 134.986 22.3814 135.502 21.8658 136.127 21.8658 H 136.627 C 137.268 21.8658 137.783 22.3814 137.783 23.0064 V 23.3346 C 137.783 23.6158 137.986 23.8189 138.252 23.8189 H 138.924 C 139.205 23.8189 139.408 23.6158 139.408 23.3346 V 23.0064 C 139.408 21.4908 138.158 20.2408 136.627 20.2408 H 136.127 C 134.611 20.2408 133.361 21.4908 133.361 23.0064 V 29.2096 C 133.361 30.7408 134.611 31.9752 136.127 31.9752 Z"
     style="fill:#000000;fill-opacity:1;stroke:none" />
  <path
     id="p17_H"
     d="M 147.168 31.8033 C 147.434 31.8033 147.652 31.6002 147.652 31.3189 V 20.8971 C 147.652 20.6158 147.434 20.4127 147.168 20.4127 H 146.496 C 146.23 20.4127 146.012 20.6158 146.012 20.8971 V 25.2877 H 143.418 V 20.8971 C 143.418 20.6158 143.215 20.4127 142.949 20.4127 H 142.277 C 141.996 20.4127 141.793 20.6158 141.793 20.8971 V 31.3189 C 141.793 31.6002 141.996 31.8033 142.277 31.8033 H 142.949 C 143.215 31.8033 143.418 31.6002 143.418 31.3189 V 26.9283 H 146.012 V 31.3189 C 146.012 31.6002 146.23 31.8033 146.496 31.8033 Z"
     style="fill:#000000;fill-opacity:1;stroke:none" />
  <path
     id="p18_U"
     d="M 153.318 31.9752 C 154.834 31.9752 156.068 30.7252 156.068 29.2096 V 20.8971 C 156.068 20.6158 155.85 20.4127 155.584 20.4127 H 154.928 C 154.662 20.4127 154.443 20.6158 154.443 20.8971 V 29.2096 C 154.443 29.8346 153.943 30.3502 153.318 30.3502 H 152.959 C 152.334 30.3502 151.818 29.8346 151.818 29.2096 V 20.8971 C 151.818 20.6158 151.615 20.4127 151.35 20.4127 H 150.693 C 150.412 20.4127 150.209 20.6158 150.209 20.8971 V 29.2096 C 150.209 30.7252 151.443 31.9752 152.959 31.9752 Z"
     style="fill:#000000;fill-opacity:1;stroke:none" />
  <path
     id="p19_L"
     d="M 163.995 31.8033 C 164.26 31.8033 164.464 31.6002 164.464 31.3189 V 30.6471 C 164.464 30.3814 164.26 30.1783 163.995 30.1783 H 160.557 V 20.8971 C 160.557 20.6158 160.354 20.4127 160.089 20.4127 H 159.417 C 159.135 20.4127 158.932 20.6158 158.932 20.8971 V 31.3189 C 158.932 31.6002 159.135 31.8033 159.417 31.8033 Z"
     style="fill:#000000;fill-opacity:1;stroke:none" />
  <path
     id="p20_E"
     d="M 172.252 31.8033 C 172.533 31.8033 172.736 31.6002 172.736 31.3189 V 30.6471 C 172.736 30.3814 172.533 30.1783 172.252 30.1783 H 168.502 V 26.9283 H 171.908 C 172.174 26.9283 172.392 26.7096 172.392 26.4439 V 25.7721 C 172.392 25.5064 172.174 25.2877 171.908 25.2877 H 168.502 V 22.0377 H 172.236 C 172.517 22.0377 172.736 21.8189 172.736 21.5689 V 20.8971 C 172.736 20.6158 172.517 20.4127 172.236 20.4127 H 167.346 C 167.064 20.4127 166.861 20.6158 166.861 20.8814 V 31.3189 C 166.861 31.6002 167.064 31.8033 167.346 31.8033 Z"
     style="fill:#000000;fill-opacity:1;stroke:none" />
    
  <!-- MAINZ -->

  <path
     id="p21_M"
     d="M 187.978 31.8033 C 188.259 31.8033 188.462 31.6002 188.462 31.3189 V 20.8971 C 188.462 20.6158 188.259 20.4127 187.978 20.4127 H 186.15 C 185.931 20.4127 185.743 20.5221 185.697 20.7096 L 184.79 24.4752 C 184.697 24.7721 184.618 25.5533 184.603 25.7252 C 184.587 25.5533 184.509 24.7721 184.431 24.4752 L 183.525 20.7096 C 183.478 20.5221 183.275 20.4127 183.072 20.4127 H 181.228 C 180.962 20.4127 180.759 20.6158 180.759 20.8971 V 31.3189 C 180.759 31.6002 180.947 31.8033 181.228 31.8033 H 181.9 C 182.181 31.8033 182.384 31.6002 182.384 31.3189 V 24.1471 C 182.384 23.7408 182.275 22.4127 182.259 22.2564 H 182.618 C 182.634 22.4127 182.806 23.7408 182.915 24.1471 L 183.728 26.9283 C 183.79 27.1471 183.978 27.2408 184.197 27.2408 H 185.025 C 185.228 27.2408 185.431 27.1471 185.493 26.9283 L 186.306 24.1471 C 186.415 23.7408 186.572 22.4127 186.587 22.2564 H 186.962 C 186.947 22.4127 186.837 23.7408 186.837 24.1471 V 31.3189 C 186.837 31.6002 187.04 31.8033 187.306 31.8033 Z"
     style="fill:#000000;fill-opacity:1;stroke:none" />
  <path
     id="p22_A"
     d="M 196.844 27.3502 C 196.844 27.3345 196.844 27.3033 196.829 27.2564 L 195.126 20.7564 C 195.063 20.5221 194.86 20.4127 194.641 20.4127 H 192.532 C 192.298 20.4127 192.11 20.5221 192.048 20.7564 L 190.329 27.2564 C 190.313 27.3033 190.313 27.3346 190.313 27.3502 V 31.3189 C 190.313 31.6002 190.532 31.8033 190.798 31.8033 H 191.485 C 191.766 31.8033 191.954 31.6002 191.954 31.3189 V 28.2408 H 195.219 V 31.3189 C 195.219 31.6002 195.423 31.8033 195.704 31.8033 H 196.376 C 196.641 31.8033 196.844 31.6002 196.844 31.3189 Z M 194.954 26.6002 H 192.204 L 193.391 22.0377 H 193.782 M 194.954 26.6002 Z"
     style="fill:#000000;fill-opacity:1;stroke:none" />
  <path
     id="p23_I"
     d="M 204.801 31.8033 C 205.082 31.8033 205.285 31.6002 205.285 31.3189 V 30.6471 C 205.285 30.3814 205.082 30.1783 204.801 30.1783 H 203.004 V 22.0377 H 204.629 C 204.894 22.0377 205.113 21.8346 205.113 21.5689 V 20.8971 C 205.113 20.6158 204.894 20.4127 204.629 20.4127 H 199.738 C 199.457 20.4127 199.254 20.6158 199.254 20.8971 V 21.5689 C 199.254 21.8346 199.457 22.0377 199.738 22.0377 H 201.363 V 30.1783 H 199.551 C 199.285 30.1783 199.082 30.3814 199.082 30.6471 V 31.3189 C 199.082 31.6002 199.285 31.8033 199.551 31.8033 Z"
     style="fill:#000000;fill-opacity:1;stroke:none" />
  <path
     id="p24_N"
     d="M 214.067 31.8033 C 214.333 31.8033 214.551 31.6002 214.551 31.3189 V 20.8971 C 214.551 20.6158 214.333 20.4127 214.067 20.4127 H 213.395 C 213.129 20.4127 212.911 20.6158 212.911 20.8971 V 28.0533 C 212.911 28.4752 213.036 29.8189 213.067 29.9752 H 212.676 C 212.661 29.8189 212.442 28.4752 212.301 28.0533 L 210.145 20.7096 C 210.083 20.4908 209.879 20.4127 209.676 20.4127 H 207.848 C 207.567 20.4127 207.348 20.6158 207.348 20.8971 V 31.3189 C 207.348 31.6002 207.551 31.8033 207.833 31.8033 H 208.504 C 208.77 31.8033 208.973 31.6002 208.973 31.3189 V 24.1471 C 208.973 23.7408 208.848 22.3971 208.833 22.2408 H 209.223 C 209.239 22.3971 209.458 23.7408 209.583 24.1471 L 211.754 31.4908 C 211.817 31.7096 212.02 31.8033 212.208 31.8033 Z"
     style="fill:#000000;fill-opacity:1;stroke:none" />
  <path
     id="p25_Z"
     d="M 222.417 31.8033 C 222.683 31.8033 222.886 31.6002 222.886 31.3189 V 30.6471 C 222.886 30.3814 222.683 30.1783 222.417 30.1783 H 218.636 L 222.433 22.0377 C 222.542 21.8033 222.558 21.5846 222.558 21.5533 V 20.8971 C 222.558 20.6158 222.339 20.4127 222.073 20.4127 H 217.339 C 217.058 20.4127 216.855 20.6158 216.855 20.8971 V 21.5689 C 216.855 21.8346 217.089 22.0377 217.355 22.0377 H 220.62 L 216.823 30.2096 C 216.73 30.4127 216.698 30.4752 216.698 30.7408 V 31.3189 C 216.698 31.6002 216.902 31.8033 217.183 31.8033 Z"
     style="fill:#000000;fill-opacity:1;stroke:none" />
    
  <!-- UNIVERSITY -->
    
  <path
     id="p27_U"
     d="M 96.3438 38.6314 C 96.3438 38.5377 96.2656 38.4752 96.1719 38.4752 H 95.5469 C 95.4687 38.4752 95.3906 38.5377 95.3906 38.6314 V 46.6158 C 95.3906 47.3814 94.75 48.022 93.9844 48.022 H 93.6719 C 92.9063 48.022 92.2656 47.3814 92.2656 46.6158 V 38.6314 C 92.2656 38.5377 92.1875 38.4752 92.1094 38.4752 H 91.4844 C 91.3906 38.4752 91.3125 38.5377 91.3125 38.6314 V 46.6158 C 91.3125 47.9127 92.375 48.9595 93.6719 48.9595 H 93.9844 C 95.2813 48.9595 96.3438 47.9127 96.3438 46.6158 Z"
     style="fill:#000000;fill-opacity:1;stroke:none" />
  <path
     id="p28_N"
     d="M 103.84 38.6314 C 103.84 38.5377 103.762 38.4752 103.684 38.4752 H 103.043 C 102.997 38.4752 102.903 38.5377 102.903 38.6314 V 46.4595 C 102.903 46.772 102.997 47.4595 103.012 47.6002 H 102.715 C 102.7 47.4595 102.622 46.772 102.512 46.4595 L 100.059 38.6002 C 100.028 38.5064 99.9498 38.4752 99.9029 38.4752 H 98.5591 C 98.481 38.4752 98.4029 38.5377 98.4029 38.6314 V 48.647 C 98.4029 48.7252 98.481 48.8033 98.5591 48.8033 H 99.1998 C 99.2466 48.8033 99.3404 48.7252 99.3404 48.647 V 40.8189 C 99.3404 40.5064 99.2466 39.8189 99.231 39.6627 H 99.5279 C 99.5435 39.8189 99.6216 40.5064 99.731 40.8189 L 102.2 48.7095 C 102.231 48.772 102.278 48.8033 102.34 48.8033 H 103.684 C 103.762 48.8033 103.84 48.7252 103.84 48.647 Z"
     style="fill:#000000;fill-opacity:1;stroke:none" />
  <path
     id="p29_I"
     d="M 111.071 48.022 C 111.071 47.9283 111.009 47.8814 110.931 47.8814 H 108.899 V 39.4283 H 110.759 C 110.853 39.4283 110.931 39.3502 110.931 39.2564 V 38.6314 C 110.931 38.5377 110.853 38.4752 110.759 38.4752 H 106.071 C 105.978 38.4752 105.899 38.5377 105.899 38.6314 V 39.2564 C 105.899 39.3502 105.978 39.4283 106.071 39.4283 H 107.931 V 47.8814 H 105.899 C 105.821 47.8814 105.759 47.9283 105.759 48.022 V 48.647 C 105.759 48.7252 105.821 48.8033 105.899 48.8033 H 110.931 C 111.009 48.8033 111.071 48.7252 111.071 48.647 Z"
     style="fill:#000000;fill-opacity:1;stroke:none" />
  <path
     id="p30_V"
     d="M 118.443 38.647 C 118.474 38.5533 118.412 38.4752 118.302 38.4752 H 117.646 C 117.599 38.4752 117.521 38.5064 117.506 38.5845 L 115.709 47.1939 L 113.912 38.5845 C 113.896 38.5064 113.818 38.4752 113.771 38.4752 H 113.115 C 113.006 38.4752 112.943 38.5533 112.974 38.647 L 115.146 48.6783 C 115.162 48.7408 115.209 48.8033 115.287 48.8033 H 116.115 C 116.193 48.8033 116.24 48.7408 116.256 48.6783 Z"
     style="fill:#000000;fill-opacity:1;stroke:none" />
  <path
     id="p31_E"
     d="M 125.658 48.0064 C 125.658 47.9127 125.596 47.8658 125.518 47.8658 H 121.596 V 44.1002 H 125.19 C 125.268 44.1002 125.346 44.0377 125.346 43.9439 V 43.3189 C 125.346 43.2408 125.268 43.1627 125.19 43.1627 H 121.596 V 39.4283 H 125.518 C 125.596 39.4283 125.658 39.3502 125.658 39.2564 V 38.6314 C 125.658 38.5377 125.596 38.4752 125.518 38.4752 H 120.815 C 120.737 38.4752 120.658 38.5377 120.658 38.6314 V 48.647 C 120.658 48.7252 120.736 48.8033 120.815 48.8033 H 125.518 C 125.596 48.8033 125.658 48.7252 125.658 48.647 Z"
     style="fill:#000000;fill-opacity:1;stroke:none" />
  <path
     id="p32_R"
     d="M 131.514 45.147 C 132.342 44.8033 132.921 43.9752 132.921 43.022 V 40.8189 C 132.921 39.522 131.858 38.4752 130.577 38.4752 H 128.061 C 127.983 38.4752 127.921 38.5377 127.921 38.6314 V 48.647 C 127.921 48.7252 127.983 48.8033 128.061 48.8033 H 128.702 C 128.78 48.8033 128.858 48.7252 128.858 48.647 V 45.3658 H 130.577 L 131.999 48.7095 C 132.014 48.7564 132.077 48.8033 132.155 48.8033 H 132.811 C 132.952 48.8033 133.014 48.7095 132.967 48.5845 Z M 131.983 43.022 C 131.983 43.7877 131.358 44.4283 130.577 44.4283 H 128.858 V 39.4283 H 130.577 C 131.358 39.4283 131.983 40.0377 131.983 40.8189 M 131.983 43.022 Z"
     style="fill:#000000;fill-opacity:1;stroke:none" />
  <path
     id="p33_S"
     d="M 140.261 46.147 C 140.261 43.0064 136.027 43.4127 136.027 41.1314 V 40.647 C 136.027 39.8814 136.667 39.2408 137.433 39.2408 H 137.745 C 138.511 39.2408 139.152 39.8814 139.152 40.647 V 40.9752 C 139.152 41.0533 139.23 41.1314 139.308 41.1314 H 139.933 C 140.027 41.1314 140.105 41.0533 140.105 40.9752 V 40.647 C 140.105 39.3658 139.042 38.3033 137.745 38.3033 H 137.433 C 136.136 38.3033 135.074 39.3658 135.074 40.647 V 41.1314 C 135.074 44.147 139.308 43.7095 139.308 46.147 V 46.6158 C 139.308 47.3814 138.683 48.022 137.886 48.022 H 137.292 C 136.495 48.022 135.87 47.3814 135.87 46.6158 V 46.2877 C 135.87 46.2095 135.792 46.147 135.699 46.147 H 135.074 C 134.98 46.147 134.917 46.2095 134.917 46.2877 V 46.6158 C 134.917 47.9127 135.98 48.9595 137.292 48.9595 H 137.886 C 139.199 48.9595 140.261 47.9127 140.261 46.6158 Z"
     style="fill:#000000;fill-opacity:1;stroke:none" />
  <path
     id="p34_I"
     d="M 147.539 48.022 C 147.539 47.9283 147.476 47.8814 147.398 47.8814 H 145.367 V 39.4283 H 147.226 C 147.32 39.4283 147.398 39.3502 147.398 39.2564 V 38.6314 C 147.398 38.5377 147.32 38.4752 147.226 38.4752 H 142.539 C 142.445 38.4752 142.367 38.5377 142.367 38.6314 V 39.2564 C 142.367 39.3502 142.445 39.4283 142.539 39.4283 H 144.398 V 47.8814 H 142.367 C 142.289 47.8814 142.226 47.9283 142.226 48.022 V 48.647 C 142.226 48.7252 142.289 48.8033 142.367 48.8033 H 147.398 C 147.476 48.8033 147.539 48.7252 147.539 48.647 Z"
     style="fill:#000000;fill-opacity:1;stroke:none" />
  <path
     id="p35_T"
     d="M 154.989 38.6314 C 154.989 38.5377 154.911 38.4752 154.832 38.4752 H 149.52 C 149.442 38.4752 149.364 38.5377 149.364 38.6314 V 39.2564 C 149.364 39.3502 149.442 39.4283 149.52 39.4283 H 151.692 V 48.647 C 151.692 48.7252 151.785 48.8033 151.879 48.8033 H 152.473 C 152.567 48.8033 152.661 48.7252 152.661 48.647 V 39.4283 H 154.832 C 154.91 39.4283 154.989 39.3502 154.989 39.2564 Z M 154.989 38.6314"
     style="fill:#000000;fill-opacity:1;stroke:none" />
  <path
     id="p36_Y"
     d="M 162.11 38.6783 C 162.173 38.5533 162.095 38.4752 161.985 38.4752 H 161.298 C 161.235 38.4752 161.173 38.4908 161.157 38.5689 L 159.47 43.0377 L 157.782 38.5689 C 157.751 38.4908 157.704 38.4752 157.641 38.4752 H 156.954 C 156.845 38.4752 156.766 38.5533 156.829 38.6783 L 158.985 44.272 V 48.647 C 158.985 48.7252 159.079 48.8033 159.173 48.8033 H 159.766 C 159.86 48.8033 159.954 48.7252 159.954 48.647 V 44.272 Z"
     style="fill:#000000;fill-opacity:1;stroke:none" />
    
  <!-- OF -->
    
  <path
     id="p37_O"
     d="M 173.735 40.647 C 173.735 39.3658 172.688 38.3033 171.391 38.3033 H 170.922 C 169.625 38.3033 168.579 39.3658 168.579 40.647 V 46.6158 C 168.579 47.9127 169.625 48.9595 170.922 48.9595 H 171.391 C 172.688 48.9595 173.735 47.9127 173.735 46.6158 Z M 172.797 46.6158 C 172.797 47.3814 172.172 48.022 171.391 48.022 H 170.922 C 170.141 48.022 169.516 47.3814 169.516 46.6158 V 40.647 C 169.516 39.8814 170.141 39.2408 170.922 39.2408 H 171.391 C 172.172 39.2408 172.797 39.8814 172.797 40.647 M 172.797 46.6158 Z"
     style="fill:#000000;fill-opacity:1;stroke:none" />
  <path
     id="p38_F"
     d="M 181.263 38.6314 C 181.263 38.5377 181.185 38.4752 181.106 38.4752 H 176.419 C 176.341 38.4752 176.263 38.5377 176.263 38.6314 V 48.647 C 176.263 48.7252 176.341 48.8033 176.419 48.8033 H 177.044 C 177.138 48.8033 177.2 48.7252 177.2 48.647 V 44.1002 H 180.794 C 180.888 44.1002 180.966 44.0377 180.966 43.9439 V 43.3189 C 180.966 43.2408 180.888 43.1627 180.794 43.1627 H 177.2 V 39.4283 H 181.106 C 181.184 39.4283 181.263 39.3502 181.263 39.2564 Z"
     style="fill:#000000;fill-opacity:1;stroke:none" />
    
  <!-- APPLIED -->
    
  <path
     id="p39_A"
     d="M 96.3438 61.8031 L 94.7188 55.6312 C 94.6875 55.5219 94.6094 55.475 94.5313 55.475 H 93.125 C 93.0469 55.475 92.9688 55.5218 92.9375 55.6312 L 91.3125 61.8031 V 65.6469 C 91.3125 65.725 91.3906 65.8031 91.4844 65.8031 H 92.1094 C 92.1875 65.8031 92.2656 65.725 92.2656 65.6469 V 62.3656 H 95.3906 V 65.6469 C 95.3906 65.725 95.4688 65.8031 95.5469 65.8031 H 96.1719 C 96.2656 65.8031 96.3438 65.725 96.3438 65.6469 Z M 95.25 61.4281 H 92.4063 L 93.7188 56.4281 H 93.9375 M 95.25 61.4281 Z"
     style="fill:#000000;fill-opacity:1;stroke:none" />
  <path
     id="p40_P"
     d="M 104.037 57.8187 C 104.037 56.5219 102.974 55.475 101.693 55.475 H 99.1773 C 99.0991 55.475 99.0366 55.5375 99.0366 55.6312 V 65.6469 C 99.0366 65.725 99.0991 65.8031 99.1773 65.8031 H 99.8179 C 99.896 65.8031 99.9741 65.725 99.9741 65.6469 V 62.3656 H 101.693 C 102.974 62.3656 104.037 61.3031 104.037 60.0219 Z M 103.099 60.0219 C 103.099 60.7875 102.474 61.4281 101.693 61.4281 H 99.9741 V 56.4281 H 101.693 C 102.474 56.4281 103.099 57.0375 103.099 57.8187 M 103.099 60.0219 Z"
     style="fill:#000000;fill-opacity:1;stroke:none" />
  <path
     id="p41_P"
     d="M 111.33 57.8187 C 111.33 56.5219 110.268 55.475 108.986 55.475 H 106.471 C 106.393 55.475 106.33 55.5375 106.33 55.6312 V 65.6469 C 106.33 65.725 106.393 65.8031 106.471 65.8031 H 107.111 C 107.189 65.8031 107.268 65.725 107.268 65.6469 V 62.3656 H 108.986 C 110.268 62.3656 111.33 61.3031 111.33 60.0219 Z M 110.393 60.0219 C 110.393 60.7875 109.768 61.4281 108.986 61.4281 H 107.268 V 56.4281 H 108.986 C 109.768 56.4281 110.393 57.0375 110.393 57.8187 M 110.393 60.0219 Z"
     style="fill:#000000;fill-opacity:1;stroke:none" />
  <path
     id="p42_L"
     d="M 118.521 65.0062 C 118.521 64.9125 118.443 64.8656 118.365 64.8656 H 114.787 V 55.6312 C 114.787 55.5375 114.693 55.475 114.599 55.475 H 113.99 C 113.912 55.475 113.834 55.5375 113.834 55.6312 V 65.6469 C 113.834 65.725 113.912 65.8031 113.99 65.8031 H 118.365 C 118.443 65.8031 118.521 65.725 118.521 65.6469 Z"
     style="fill:#000000;fill-opacity:1;stroke:none" />
  <path
     id="p43_I"
     d="M 125.658 65.0219 C 125.658 64.9281 125.596 64.8812 125.518 64.8812 H 123.486 V 56.4281 H 125.346 C 125.44 56.4281 125.518 56.35 125.518 56.2562 V 55.6312 C 125.518 55.5375 125.44 55.475 125.346 55.475 H 120.658 C 120.565 55.475 120.486 55.5375 120.486 55.6312 V 56.2562 C 120.486 56.35 120.565 56.4281 120.658 56.4281 H 122.518 V 64.8812 H 120.486 C 120.408 64.8812 120.346 64.9281 120.346 65.0219 V 65.6469 C 120.346 65.725 120.408 65.8031 120.486 65.8031 H 125.518 C 125.596 65.8031 125.658 65.725 125.658 65.6469 Z"
     style="fill:#000000;fill-opacity:1;stroke:none" />
  <path
     id="p44_E"
     d="M 132.952 65.0062 C 132.952 64.9125 132.889 64.8656 132.811 64.8656 H 128.889 V 61.1 H 132.483 C 132.561 61.1 132.639 61.0375 132.639 60.9437 V 60.3187 C 132.639 60.2406 132.561 60.1625 132.483 60.1625 H 128.889 V 56.4281 H 132.811 C 132.889 56.4281 132.952 56.35 132.952 56.2562 V 55.6312 C 132.952 55.5375 132.889 55.475 132.811 55.475 H 128.108 C 128.03 55.475 127.952 55.5375 127.952 55.6312 V 65.6469 C 127.952 65.725 128.03 65.8031 128.108 65.8031 H 132.811 C 132.889 65.8031 132.952 65.725 132.952 65.6469 Z"
     style="fill:#000000;fill-opacity:1;stroke:none" />
  <path
     id="p45_D"
     d="M 140.214 57.8187 C 140.214 56.5219 139.152 55.475 137.87 55.475 H 135.355 C 135.277 55.475 135.214 55.5375 135.214 55.6312 V 65.6469 C 135.214 65.725 135.277 65.8031 135.355 65.8031 H 137.87 C 139.152 65.8031 140.214 64.7406 140.214 63.4594 Z M 139.277 63.4594 C 139.277 64.2406 138.652 64.8656 137.87 64.8656 H 136.152 V 56.4281 H 137.87 C 138.652 56.4281 139.277 57.0375 139.277 57.8187 M 139.277 63.4594 Z"
     style="fill:#000000;fill-opacity:1;stroke:none" />
    
  <!-- SCIENCES -->
    
  <path
     id="p46_S"
     d="M 152.528 63.1469 C 152.528 60.0062 148.294 60.4125 148.294 58.1312 V 57.6469 C 148.294 56.8812 148.934 56.2406 149.7 56.2406 H 150.012 C 150.778 56.2406 151.419 56.8812 151.419 57.6469 V 57.975 C 151.419 58.0531 151.497 58.1312 151.575 58.1312 H 152.2 C 152.294 58.1312 152.372 58.0531 152.372 57.975 V 57.6469 C 152.372 56.3656 151.309 55.3031 150.012 55.3031 H 149.7 C 148.403 55.3031 147.34 56.3656 147.34 57.6469 V 58.1312 C 147.34 61.1469 151.575 60.7094 151.575 63.1469 V 63.6156 C 151.575 64.3812 150.95 65.0219 150.153 65.0219 H 149.559 C 148.762 65.0219 148.137 64.3812 148.137 63.6156 V 63.2875 C 148.137 63.2093 148.059 63.1469 147.965 63.1469 H 147.34 C 147.247 63.1469 147.184 63.2094 147.184 63.2875 V 63.6156 C 147.184 64.9125 148.247 65.9594 149.559 65.9594 H 150.153 C 151.465 65.9594 152.528 64.9125 152.528 63.6156 Z M 152.528 63.1469"
     style="fill:#000000;fill-opacity:1;stroke:none" />
  <path
     id="p47_C"
     d="M 159.806 63.1469 C 159.806 63.0687 159.743 62.9906 159.665 62.9906 H 159.025 C 158.931 62.9906 158.853 63.0687 158.853 63.1469 V 63.6156 C 158.853 64.3812 158.243 65.0219 157.446 65.0219 H 156.993 C 156.228 65.0219 155.587 64.3812 155.587 63.6156 V 57.6469 C 155.587 56.8812 156.228 56.2406 156.993 56.2406 H 157.446 C 158.243 56.2406 158.853 56.8812 158.853 57.6469 V 57.975 C 158.853 58.0531 158.931 58.1312 159.025 58.1312 H 159.665 C 159.743 58.1312 159.806 58.0531 159.806 57.975 V 57.6469 C 159.806 56.3656 158.759 55.3031 157.446 55.3031 H 156.993 C 155.696 55.3031 154.634 56.3656 154.634 57.6469 V 63.6156 C 154.634 64.9125 155.696 65.9594 156.993 65.9594 H 157.446 C 158.759 65.9594 159.806 64.9125 159.806 63.6156 Z"
     style="fill:#000000;fill-opacity:1;stroke:none" />
  <path
     id="p48_I"
     d="M 167.389 65.0219 C 167.389 64.9281 167.327 64.8812 167.249 64.8812 H 165.217 V 56.4281 H 167.077 C 167.171 56.4281 167.249 56.35 167.249 56.2562 V 55.6312 C 167.249 55.5375 167.171 55.475 167.077 55.475 H 162.389 C 162.296 55.475 162.217 55.5375 162.217 55.6312 V 56.2562 C 162.217 56.35 162.296 56.4281 162.389 56.4281 H 164.249 V 64.8812 H 162.217 C 162.139 64.8812 162.077 64.9281 162.077 65.0219 V 65.6469 C 162.077 65.725 162.139 65.8031 162.217 65.8031 H 167.249 C 167.327 65.8031 167.389 65.725 167.389 65.6469 Z"
     style="fill:#000000;fill-opacity:1;stroke:none" />
  <path
     id="p49_E"
     d="M 174.683 65.0062 C 174.683 64.9125 174.62 64.8656 174.542 64.8656 H 170.62 V 61.1 H 174.214 C 174.292 61.1 174.37 61.0375 174.37 60.9437 V 60.3187 C 174.37 60.2406 174.292 60.1625 174.214 60.1625 H 170.62 V 56.4281 H 174.542 C 174.62 56.4281 174.683 56.35 174.683 56.2562 V 55.6312 C 174.683 55.5375 174.62 55.475 174.542 55.475 H 169.839 C 169.761 55.475 169.683 55.5375 169.683 55.6312 V 65.6469 C 169.683 65.725 169.761 65.8031 169.839 65.8031 H 174.542 C 174.62 65.8031 174.683 65.725 174.683 65.6469 Z"
     style="fill:#000000;fill-opacity:1;stroke:none" />
  <path
     id="p50_N"
     d="M 182.039 55.6312 C 182.039 55.5375 181.961 55.475 181.883 55.475 H 181.242 C 181.195 55.475 181.101 55.5375 181.101 55.6312 V 63.4594 C 181.101 63.7719 181.195 64.4594 181.211 64.6 H 180.914 C 180.898 64.4594 180.82 63.7719 180.711 63.4594 L 178.258 55.6 C 178.226 55.5062 178.148 55.475 178.101 55.475 H 176.758 C 176.68 55.475 176.601 55.5375 176.601 55.6312 V 65.6469 C 176.601 65.725 176.679 65.8031 176.758 65.8031 H 177.398 C 177.445 65.8031 177.539 65.725 177.539 65.6469 V 57.8187 C 177.539 57.5062 177.445 56.8187 177.43 56.6625 H 177.726 C 177.742 56.8187 177.82 57.5062 177.93 57.8187 L 180.398 65.7094 C 180.429 65.7719 180.476 65.8031 180.539 65.8031 H 181.883 C 181.961 65.8031 182.039 65.725 182.039 65.6469 Z"
     style="fill:#000000;fill-opacity:1;stroke:none" />
  <path
     id="p51_C"
     d="M 189.27 63.1469 C 189.27 63.0687 189.207 62.9906 189.129 62.9906 H 188.489 C 188.395 62.9906 188.317 63.0687 188.317 63.1469 V 63.6156 C 188.317 64.3812 187.707 65.0219 186.911 65.0219 H 186.457 C 185.692 65.0219 185.051 64.3812 185.051 63.6156 V 57.6469 C 185.051 56.8812 185.692 56.2406 186.457 56.2406 H 186.911 C 187.707 56.2406 188.317 56.8812 188.317 57.6469 V 57.975 C 188.317 58.0531 188.395 58.1312 188.489 58.1312 H 189.129 C 189.207 58.1312 189.27 58.0531 189.27 57.975 V 57.6469 C 189.27 56.3656 188.223 55.3031 186.911 55.3031 H 186.457 C 185.161 55.3031 184.098 56.3656 184.098 57.6469 V 63.6156 C 184.098 64.9125 185.161 65.9594 186.457 65.9594 H 186.911 C 188.223 65.9594 189.27 64.9125 189.27 63.6156 Z"
     style="fill:#000000;fill-opacity:1;stroke:none" />
  <path
     id="p52_E"
     d="M 196.563 65.0062 C 196.563 64.9125 196.501 64.8656 196.423 64.8656 H 192.501 V 61.1 H 196.095 C 196.173 61.1 196.251 61.0375 196.251 60.9437 V 60.3187 C 196.251 60.2406 196.173 60.1625 196.095 60.1625 H 192.501 V 56.4281 H 196.423 C 196.501 56.4281 196.563 56.35 196.563 56.2562 V 55.6312 C 196.563 55.5375 196.501 55.475 196.423 55.475 H 191.72 C 191.642 55.475 191.563 55.5375 191.563 55.6312 V 65.6469 C 191.563 65.725 191.641 65.8031 191.72 65.8031 H 196.423 C 196.501 65.8031 196.563 65.725 196.563 65.6469 Z"
     style="fill:#000000;fill-opacity:1;stroke:none" />
  <path
     id="p53_S"
     d="M 203.872 63.1469 C 203.872 60.0062 199.638 60.4125 199.638 58.1312 V 57.6469 C 199.638 56.8812 200.279 56.2406 201.044 56.2406 H 201.357 C 202.122 56.2406 202.763 56.8812 202.763 57.6469 V 57.975 C 202.763 58.0531 202.841 58.1312 202.919 58.1312 H 203.544 C 203.638 58.1312 203.716 58.0531 203.716 57.975 V 57.6469 C 203.716 56.3656 202.654 55.3031 201.357 55.3031 H 201.044 C 199.747 55.3031 198.685 56.3656 198.685 57.6469 V 58.1312 C 198.685 61.1469 202.919 60.7094 202.919 63.1469 V 63.6156 C 202.919 64.3812 202.294 65.0219 201.497 65.0219 H 200.904 C 200.107 65.0219 199.482 64.3812 199.482 63.6156 V 63.2875 C 199.482 63.2093 199.404 63.1469 199.31 63.1469 H 198.685 C 198.591 63.1469 198.529 63.2094 198.529 63.2875 V 63.6156 C 198.529 64.9125 199.591 65.9594 200.904 65.9594 H 201.497 C 202.81 65.9594 203.872 64.9125 203.872 63.6156 Z"
     style="fill:#000000;fill-opacity:1;stroke:none" />
</svg>
